<mxfile host="app.diagrams.net" agent="Mozilla/5.0 (Windows NT 10.0; Win64; x64) AppleWebKit/537.36 (KHTML, like Gecko) Chrome/130.0.0.0 Safari/537.36" version="24.8.3">
  <diagram name="Страница — 1" id="tdHTdyHLGvhaFrAgQV2v">
    <mxGraphModel dx="880" dy="1675" grid="1" gridSize="10" guides="1" tooltips="1" connect="1" arrows="1" fold="1" page="1" pageScale="1" pageWidth="827" pageHeight="1169" math="0" shadow="0">
      <root>
        <mxCell id="0" />
        <mxCell id="1" parent="0" />
        <mxCell id="MknOXCNS_YxvBnp52u7I-1" value="" style="shape=datastore;whiteSpace=wrap;html=1;" vertex="1" parent="1">
          <mxGeometry x="760" y="100" width="120" height="200" as="geometry" />
        </mxCell>
        <mxCell id="MknOXCNS_YxvBnp52u7I-14" value="" style="group" vertex="1" connectable="0" parent="1">
          <mxGeometry x="70" y="50" width="270" height="280" as="geometry" />
        </mxCell>
        <mxCell id="MknOXCNS_YxvBnp52u7I-4" value="" style="rounded=0;whiteSpace=wrap;html=1;" vertex="1" parent="MknOXCNS_YxvBnp52u7I-14">
          <mxGeometry y="20" width="270" height="260" as="geometry" />
        </mxCell>
        <mxCell id="MknOXCNS_YxvBnp52u7I-5" value="" style="shape=trapezoid;perimeter=trapezoidPerimeter;whiteSpace=wrap;html=1;fixedSize=1;strokeColor=#4D4D4D;" vertex="1" parent="MknOXCNS_YxvBnp52u7I-14">
          <mxGeometry x="60" width="80" height="20" as="geometry" />
        </mxCell>
        <mxCell id="MknOXCNS_YxvBnp52u7I-6" value="" style="shape=trapezoid;perimeter=trapezoidPerimeter;whiteSpace=wrap;html=1;fixedSize=1;" vertex="1" parent="MknOXCNS_YxvBnp52u7I-14">
          <mxGeometry width="80" height="20" as="geometry" />
        </mxCell>
        <mxCell id="MknOXCNS_YxvBnp52u7I-7" value="" style="rounded=1;whiteSpace=wrap;html=1;strokeColor=#4D4D4D;" vertex="1" parent="MknOXCNS_YxvBnp52u7I-14">
          <mxGeometry x="40" y="23" width="192" height="10" as="geometry" />
        </mxCell>
        <mxCell id="MknOXCNS_YxvBnp52u7I-8" value="" style="endArrow=none;html=1;rounded=0;exitX=0.998;exitY=0.063;exitDx=0;exitDy=0;exitPerimeter=0;strokeColor=#4D4D4D;" edge="1" parent="MknOXCNS_YxvBnp52u7I-14" source="MknOXCNS_YxvBnp52u7I-4">
          <mxGeometry width="50" height="50" relative="1" as="geometry">
            <mxPoint x="50" y="100" as="sourcePoint" />
            <mxPoint y="36" as="targetPoint" />
          </mxGeometry>
        </mxCell>
        <mxCell id="MknOXCNS_YxvBnp52u7I-10" value="" style="html=1;verticalLabelPosition=bottom;align=center;labelBackgroundColor=#ffffff;verticalAlign=top;strokeWidth=2;strokeColor=#4D4D4D;shadow=0;dashed=0;shape=mxgraph.ios7.icons.reload;" vertex="1" parent="MknOXCNS_YxvBnp52u7I-14">
          <mxGeometry x="27" y="23" width="8.89" height="10" as="geometry" />
        </mxCell>
        <mxCell id="MknOXCNS_YxvBnp52u7I-12" value="" style="html=1;verticalLabelPosition=bottom;labelBackgroundColor=#ffffff;verticalAlign=top;shadow=0;dashed=0;strokeWidth=2;shape=mxgraph.ios7.misc.left;strokeColor=#4D4D4D;" vertex="1" parent="MknOXCNS_YxvBnp52u7I-14">
          <mxGeometry x="4" y="22" width="6" height="12" as="geometry" />
        </mxCell>
        <mxCell id="MknOXCNS_YxvBnp52u7I-13" value="" style="html=1;verticalLabelPosition=bottom;labelBackgroundColor=#ffffff;verticalAlign=top;shadow=0;dashed=0;strokeWidth=2;shape=mxgraph.ios7.misc.right;strokeColor=#4D4D4D;" vertex="1" parent="MknOXCNS_YxvBnp52u7I-14">
          <mxGeometry x="16" y="22" width="6" height="12" as="geometry" />
        </mxCell>
        <mxCell id="MknOXCNS_YxvBnp52u7I-15" value="" style="rounded=1;whiteSpace=wrap;html=1;arcSize=7;" vertex="1" parent="1">
          <mxGeometry x="430" y="70" width="230" height="260" as="geometry" />
        </mxCell>
        <mxCell id="MknOXCNS_YxvBnp52u7I-16" value="&lt;font style=&quot;font-size: 35px;&quot;&gt;A&lt;/font&gt;" style="text;html=1;align=center;verticalAlign=middle;whiteSpace=wrap;rounded=0;" vertex="1" parent="1">
          <mxGeometry x="160" y="-10" width="60" height="30" as="geometry" />
        </mxCell>
        <mxCell id="MknOXCNS_YxvBnp52u7I-17" value="&lt;font style=&quot;font-size: 35px;&quot;&gt;B&lt;/font&gt;" style="text;html=1;align=center;verticalAlign=middle;whiteSpace=wrap;rounded=0;" vertex="1" parent="1">
          <mxGeometry x="515" y="-10" width="60" height="30" as="geometry" />
        </mxCell>
        <mxCell id="MknOXCNS_YxvBnp52u7I-18" value="&lt;font style=&quot;font-size: 35px;&quot;&gt;C&lt;/font&gt;" style="text;html=1;align=center;verticalAlign=middle;whiteSpace=wrap;rounded=0;" vertex="1" parent="1">
          <mxGeometry x="790" y="-10" width="60" height="30" as="geometry" />
        </mxCell>
        <mxCell id="MknOXCNS_YxvBnp52u7I-19" value="" style="endArrow=classic;html=1;rounded=0;" edge="1" parent="1">
          <mxGeometry width="50" height="50" relative="1" as="geometry">
            <mxPoint x="350" y="167" as="sourcePoint" />
            <mxPoint x="420" y="167" as="targetPoint" />
          </mxGeometry>
        </mxCell>
        <mxCell id="MknOXCNS_YxvBnp52u7I-23" value="1" style="edgeLabel;html=1;align=center;verticalAlign=middle;resizable=0;points=[];fontSize=17;" vertex="1" connectable="0" parent="MknOXCNS_YxvBnp52u7I-19">
          <mxGeometry x="0.1429" y="1" relative="1" as="geometry">
            <mxPoint x="-7" y="-12" as="offset" />
          </mxGeometry>
        </mxCell>
        <mxCell id="MknOXCNS_YxvBnp52u7I-20" value="" style="endArrow=classic;html=1;rounded=0;" edge="1" parent="1">
          <mxGeometry width="50" height="50" relative="1" as="geometry">
            <mxPoint x="413" y="198" as="sourcePoint" />
            <mxPoint x="343" y="198" as="targetPoint" />
          </mxGeometry>
        </mxCell>
        <mxCell id="MknOXCNS_YxvBnp52u7I-21" value="" style="endArrow=classic;html=1;rounded=0;" edge="1" parent="1">
          <mxGeometry width="50" height="50" relative="1" as="geometry">
            <mxPoint x="676" y="170" as="sourcePoint" />
            <mxPoint x="746" y="170" as="targetPoint" />
          </mxGeometry>
        </mxCell>
        <mxCell id="MknOXCNS_YxvBnp52u7I-24" value="2" style="edgeLabel;html=1;align=center;verticalAlign=middle;resizable=0;points=[];fontSize=17;" vertex="1" connectable="0" parent="MknOXCNS_YxvBnp52u7I-21">
          <mxGeometry x="-0.0571" y="4" relative="1" as="geometry">
            <mxPoint x="-1" y="-8" as="offset" />
          </mxGeometry>
        </mxCell>
        <mxCell id="MknOXCNS_YxvBnp52u7I-22" value="" style="endArrow=classic;html=1;rounded=0;" edge="1" parent="1">
          <mxGeometry width="50" height="50" relative="1" as="geometry">
            <mxPoint x="740" y="197.5" as="sourcePoint" />
            <mxPoint x="670" y="197.5" as="targetPoint" />
          </mxGeometry>
        </mxCell>
        <mxCell id="MknOXCNS_YxvBnp52u7I-25" value="A - Фронтэнд&lt;div&gt;&lt;span style=&quot;background-color: initial;&quot;&gt;B - Бэкенд&lt;/span&gt;&lt;div style=&quot;font-size: 19px;&quot;&gt;C - Database&amp;nbsp;PostgreSQL&lt;/div&gt;&lt;div style=&quot;font-size: 19px;&quot;&gt;&lt;br&gt;&lt;/div&gt;&lt;div style=&quot;font-size: 19px;&quot;&gt;1 - HTTPS&lt;/div&gt;&lt;div style=&quot;font-size: 19px;&quot;&gt;2 -&amp;nbsp;JDBC, TCP/IP&lt;/div&gt;&lt;/div&gt;" style="text;html=1;align=left;verticalAlign=middle;resizable=0;points=[];autosize=1;strokeColor=none;fillColor=none;fontSize=19;" vertex="1" parent="1">
          <mxGeometry x="70" y="358" width="240" height="150" as="geometry" />
        </mxCell>
      </root>
    </mxGraphModel>
  </diagram>
</mxfile>
